<svg xmlns="http://www.w3.org/2000/svg" viewBox="0 0 537.1 269.7"><defs><style>.cls-1{fill:#fff;fill-rule:evenodd;}</style></defs><title>Recurso 2logo-white</title><g id="Capa_2" data-name="Capa 2"><g id="Layer_1" data-name="Layer 1"><path class="cls-1" d="M248.4,145h2c5.8,0,9,9.9,3.2,13.8l-1.3.7a7.6,7.6,0,0,1-8.7-1.5,8.4,8.4,0,0,1-2-5.3c-.2-3.8,2.8-7.7,6.8-7.7Zm16.8-33.6a47.3,47.3,0,0,0-10.9,1.2,42.1,42.1,0,0,0-17.3,8.5l-7.7,8c-2.9,2.9-5.6,10.6-6.2,14.5-1.8,11.6-.6,18.4-7.1,29.3l-2.8,4.6c-.4.6-.8.8-1.3,1.4l-7.4,8.2c-1.7,2.1-4.2,3.5-2,6.4s5.6,1.9,8.7,1.9c8.6,0,15.7,4.3,22.2,9.1,3.5,2.6,19.6,19,23.3,23.2l17,19.3c9.1,9.8,17.2,18.2,30.7,21.3s24.2,1.1,33.7-8l7.2-7.6c4.3-4.9,6.5-8.9,9.6-12.7a7.4,7.4,0,0,0,1.4-2.1l7.3-11.5c2.6-3.6,4.6-7.8,6.8-11.6.5-.9,1-1.5,1.5-2.4l17.7-30.4.2-.2,18.8-29.3c1.1-1.5,2-2.9,3-4.4l6.3-8.5c1.1-1.4,2-2.8,3.1-4.3,3.7-5,7.2-9.9,11.2-14.6a25.5,25.5,0,0,0,1.6-2.3l9.9-12.3c3.1-3.5,6.9-9,10.3-11.9,1.4-1.2,2.2-2.8,3.4-4l33-33.9c1.6-1.3,2.5-2.4,3.9-3.5s2.4-2.5,3.9-3.5,3.8-3.6,5.8-5.1l16.7-13,2.4-1.5c1.5-1.1,2.7-2.1,4.3-3.2,4.2-2.9,14.1-12.5,7.2-17.4s-14.5.1-19.4,2.1l-11.5,5.7a59.3,59.3,0,0,1-5.8,2.8l-8.5,4.4-2.8,1.5L470.3,35,464.8,38c-1.9,1.1-3.4,2.4-5.2,3.4l-8,4.9c-10.3,6.2-18.7,12.2-28.6,18.8-3.4,2.2-7.2,4.4-10.1,7.1a11.6,11.6,0,0,1-2.5,1.8L381.2,96.4l-2.5,1.8c-1.7,1.4-3,2.6-4.7,3.9a16.9,16.9,0,0,0-2.3,2c-4.7,4.7-15.5,12.4-20.9,17.8l-4.6,4a19.1,19.1,0,0,0-2.2,2.1l-1.1.8c-1.4.9-2.2,2.4-3.2,3.4s-1.5.8-2.6,1.7-.9,1.4-2,2.3-1.4,1-2.3,2l-8.8,8.4c-3,2.8-6.2,5.2-8.4,8.8s.9,8.3,2.1,12.8a29.2,29.2,0,0,0,1.2,3.1c.5,1.2.7,2,1.1,3.2s.8,1.7,1.3,3a29.3,29.3,0,0,1,.9,3.4c.5,1.8,6.3,13.5,1.2,9.8-2-1.5-5.4-12.2-6.3-15.3-.3-1.2-.8-2-1-3.3L310,152.6c-.9-2.3-1.5-4-2.5-6.1l-1.2-3.1-1.4-2.9a62,62,0,0,0-8.5-13c-2.6-3-5.3-6.3-8.8-8.4C280.7,114.9,274.1,111.4,265.2,111.4Z"/><path class="cls-1" d="M213.9,164.6c6.6,0,1.1-7.8,5.5-21.8,2.4-7.7,2.1-7.3,6.1-14.3a8.4,8.4,0,0,1,1.6-1.9c4.5-5.3,4.4-6.1,10.2-10.1l.9-.7.4-.4c1.8-1.7,9.4-5.3,12.1-6.2a81.4,81.4,0,0,1,14.8-2.4,47.9,47.9,0,0,1,9.8,1.1,37.9,37.9,0,0,1,12.3,4.6l1.8,1,7.9,6.5c1.9,1.9,3.1,4.1,4.9,6.1,5.6,6.3,8.2,20.4,11.4,22.6,1.4-.4.9-.4,1.9-1.2l1.7-1.4a35.9,35.9,0,0,1,3.2-3.1l48.2-40.6c1.3-1,2-2,3.2-3,5.1-4,1.7-7-3.3-9.9-2.7-1.5-5.6-2.6-8.5-4-4.7-2.3-20.5-7-24.5-7.2l-11.4-1.6-5.7-.5-12.2-.7a266.5,266.5,0,0,0-27.3,2c-6.8.8-19,2.8-24.9,4.8-2.7.9-4,.4-7.9,1.9l-15,4.9-30.2,14-12.3,7.7a23.2,23.2,0,0,0-2.8,2.3l-11.1,8.5c-10.3,10-13.8,12.7-21.9,24.6-2,2.9-2.9,3.4-5,7.9-2.8,6.1,2.4,6.6,10.6,6.7,2.9,0,6.3.5,9,.8s6.4.1,9.7.5c5.7.6,12.4.8,18.1,1.4,2.8.3,6.7.2,9.4.4S210.7,164.6,213.9,164.6Z"/><path class="cls-1" d="M0,191.5c0,6.8,7.6,5.5,16.4,5.5,6.8,0,14-.2,20.7,0,2,.1,2.4.4,4.7.4l34.5,2.3c4,.3,3.8,0,9.5.7l45.1,6.9,4.2.9c1.8.4,3,.3,4.8.6,5.9,1,26.4,6.3,33.1,8.3,2.9.9,5.4,1.3,8.3,2.3L193,223c3.9,1.3,7.5,3,11.9,4.1s23.4,9.1,29.7,11.8l24.8,11.6,3.7,1.7c.9.4,6.8,3.7,6.8-.6,0-2.1-1.9-3.9-3-5.2s-.2-.9-3.7-4.5l-13.3-15.6c-.8-1-1-1.4-2-2.3l-4.1-4.1-2.1-2.2c-3.6-3.6-7.9-6.4-11.8-9.7l-.4-.4-.2-.2-1.1-.9a70.6,70.6,0,0,0-20-9.3c-5-1.3-10.9-.1-13.7-3.1.3-3.1,5.8-7.3,9.3-11.5,2.2-2.6,8.3-10.6,8.3-13.2a5.6,5.6,0,0,0-.4-2c-5-1.2-11.4-1-17-1.8s-48.6-2.1-54.6-2.1a472.7,472.7,0,0,0-59,3.6c-2.5.3-6.5.9-9.1,1.5s-4.6.5-9.2,1.4c-10.2,2-19.6,4.2-29.4,7-1.4.4-2.5.9-4.2,1.2a64.3,64.3,0,0,0-8.1,2.4l-3.7,1.4C13.8,183.3,0,187.1,0,191.5Z"/><path class="cls-1" d="M138.9,150.5c3.2,0,6-5.2,8.3-8.5s4.8-7.5,7.2-10a52.4,52.4,0,0,0,3.9-4.7l4.3-4.3a29.8,29.8,0,0,1,2.4-1.9c2.1-1.9-.1-.7,4.4-4.2s-.3-5.9-3.4-9.5L154.8,95.1c-6.3-6.2-12.6-15.5-20.3-21.1a24.9,24.9,0,0,0-23.5-3c-7.5,2.9-14.9,10.5-19,17.3-2.1,3.5-4.8,6.5-5,10.6s-.4,8.5,1.8,13c.6,1.1,1.4,2,2.2,3.3,3,5.1,11.8,10.7,16.6,14.2l9.3,6.4a18.5,18.5,0,0,1,2.8,2.2l12.5,8.6C133.5,148,136.4,150.5,138.9,150.5Z"/><path class="cls-1" d="M360.2,77.8a2.6,2.6,0,0,0,2.7-1.6l3.2-9.7c2.3-7.2,6.8-19.2,8.6-25.8s5.8-12.5,4.7-20.5-1-6.6-5.2-12c-2.9-3.8-14.1-6.3-18.8-7L339.1,0h-8.5c-4.2.3-7.3,1.8-10.9,7.3a16.6,16.6,0,0,0-2.7,6.3c-1.7,6.6-.8,9.9-1.6,16l-1.8,25.1c0,5.5-2.1,11.3,1.9,14.2,1.7,1.2,5.6.5,8.1.9s5.5.3,8.3.7L353,76C354.7,76.5,358.5,77.8,360.2,77.8Z"/><path class="cls-1" d="M135.7,59c0,8,1.7,12,6.7,18.3l10.4,11.9c1.7,1.8,2.8,3.7,5.2,5.7s1.1,1.8,2.4,3.1l5.5,5.8c1.4,1.5,6.8,8.7,8.5,8.7,3.8,0,7.1-4.3,11.8-7.4l16.5-9.7c8.3-4.1,9.3-3.4,9.3-7.6,0-2.3-3-7.9-4.2-10.2a23.2,23.2,0,0,1-.9-2.3L195.3,51c-2.1-3.4-6.8-20.6-21.7-20.6a19.8,19.8,0,0,0-7,1.2c-4.4,1.5-13,5.6-16.4,8.7s-9.3,7-12.7,11.9A13.9,13.9,0,0,0,135.7,59Z"/><path class="cls-1" d="M192.4,34c0,6.9,3.6,12.6,6.5,18.5.7,1.3.9,2.2,1.5,3.5s2.2,3.5,3.5,6.7l6.5,13.4c7.7,13.7,2.1,15,23.9,6.5l16.4-4.3a32.8,32.8,0,0,0,5.6-1.4c4.1-2,1.5-10.6.8-13.9l-6.1-37.7c-1.7-5.3-4.6-9.8-9.2-12.7-8.1-4.9-19-3.2-27.5,0l-14.5,7C195.3,22.5,192.4,28.6,192.4,34Z"/><path class="cls-1" d="M253.8,19.9c0,11.7,3.7,20.5,4.6,29.8l4,21.8a3.5,3.5,0,0,0,2.1,2.2c4.3,2,9,.2,14.2-.7l23.1-2.3c4.2-.3,6.2-2.3,6.7-6.2s1-7.9,1.1-11.4.9-8,1.1-11.8l1.6-24.6c0-12-9.2-16.8-21.1-16.8h-6.9c-2.1.3-4.3.1-6.7.3-4.2.4-9.4.2-12.8,1.7C257.7,5.3,253.8,11.6,253.8,19.9Z"/><path class="cls-1" d="M384.5,88.3c3,0,2.7-1,4.5-2.2l58.6-40.8a7,7,0,0,1,2.3-1.2c0-2.5.3-3.3-1-4.9l-12.2-9.7c-3.2-2.6-13.7-9.3-17.3-10.8-6.9-3-3.6-3.5-14.2-4.6a20,20,0,0,0-10.4,2c-7.2,3.6-8.5,7-11.9,12.7-1.5,2.6-2,6.3-2.9,9.6l-5.4,19.6c-.5,1.9-.9,3-1.4,4.8s-.9,3-1.3,4.9c-3.6,15.8-2.3,10.3,4.7,15.9l3.8,2.4C381.2,86.8,383.6,88.3,384.5,88.3Z"/><path class="cls-1" d="M46.5,167.7c0,3.8,8.4,1.2,9.6,1,11.2-2.2,23.6-4,35-5.3l32-1.6a43.4,43.4,0,0,0,6.5-.2c2.2-.3,3.8-.3,5.2-1.4,6.6-5.4.3-8.2-3-10.5l-14.3-9.9-3.6-2.3c-1.6-1-2-1.7-3.6-2.7l-11.8-8.1c-5.5-4.6-12.9-8.2-20.3-8.2a17,17,0,0,0-4,.7c-5.7,1-9.9,6.1-13.4,10.5s-9,16.2-10.7,21.3S46.5,162,46.5,167.7Z"/></g></g></svg>